<?xml version="1.0" encoding="UTF-8"?>
<svg id="Layer_1" data-name="Layer 1" xmlns="http://www.w3.org/2000/svg" viewBox="0 0 31.16 31.16">
  <defs>
    <style>
      .cls-1 {
        fill: #fff;
      }

      .cls-2 {
        fill: #ff2257;
      }
    </style>
  </defs>
  <rect class="cls-2" width="31.16" height="31.16" rx="11.34" ry="11.34"/>
  <g>
    <path class="cls-1" d="M23.83,21.1l-7.82-13.54c-.18-.31-.69-.31-.87,0l-7.82,13.54c-.09,.15-.09,.35,0,.5s.25,.25,.43,.25h15.64c.18,0,.34-.1,.43-.25s.09-.35,0-.5Zm-15.2-.25l6.95-12.04,6.95,12.04H8.63Z"/>
    <path class="cls-1" d="M15.08,12.57v3.94c0,.28,.22,.5,.5,.5s.5-.22,.5-.5v-3.94c0-.28-.22-.5-.5-.5s-.5,.22-.5,.5Z"/>
    <path class="cls-1" d="M15.58,17.93c-.28,0-.5,.22-.5,.5v1c0,.28,.22,.5,.5,.5s.5-.22,.5-.5v-1c0-.28-.22-.5-.5-.5Z"/>
  </g>
</svg>