<!DOCTYPE svg PUBLIC "-//W3C//DTD SVG 1.1//EN" "http://www.w3.org/Graphics/SVG/1.1/DTD/svg11.dtd">
<!-- Uploaded to: SVG Repo, www.svgrepo.com, Transformed by: SVG Repo Mixer Tools -->
<svg height="800px" width="800px" version="1.1" id="Layer_1" xmlns="http://www.w3.org/2000/svg" xmlns:xlink="http://www.w3.org/1999/xlink" viewBox="0 0 512.001 512.001" xml:space="preserve" fill="#000000">
<g id="SVGRepo_bgCarrier" stroke-width="0"/>
<g id="SVGRepo_tracerCarrier" stroke-linecap="round" stroke-linejoin="round"/>
<g id="SVGRepo_iconCarrier"> <path style="fill:#5B83CC;" d="M118.168,122.63l-98.125,20.043l15.67,147.078c1.328,12.471,11.85,21.93,24.391,21.93h116.127 c12.541,0,23.062-9.459,24.391-21.93l15.67-147.078L118.168,122.63z"/> <path style="fill:#FF704D;" d="M393.832,122.63l98.125,20.043l-15.67,147.078c-1.329,12.471-11.85,21.93-24.391,21.93H335.769 c-12.541,0-23.062-9.459-24.391-21.93l-15.67-147.078L393.832,122.63z"/> <path style="fill:#69B551;" d="M256,199.132l-109.145,22.294l17.43,163.596c1.478,13.87,13.181,24.393,27.13,24.393h129.17 c13.95,0,25.652-10.523,27.13-24.393l17.43-163.596L256,199.132z"/> <g> <path style="fill:#FFFFFF;" d="M298.715,288.669c0.016-0.005,0.031-0.014,0.047-0.02c1.856-0.681,3.483-2.029,4.404-3.788 c1.09-2.08,1.293-4.534,0.467-6.74l-10.306-27.497c-1.579-4.211-6.272-6.346-10.485-4.768c-4.212,1.579-6.347,6.273-4.768,10.485 l2.56,6.832c-5.688-1.81-11.664-2.76-17.733-2.76c-14.164,0-27.829,5.132-38.477,14.449c-3.385,2.962-3.729,8.107-0.767,11.492 c1.61,1.84,3.866,2.782,6.132,2.782c1.904,0,3.815-0.663,5.36-2.014c7.679-6.72,17.534-10.419,27.752-10.419 c4.8,0,9.517,0.827,13.969,2.39l-11.271,3.969c-4.243,1.494-6.47,6.144-4.977,10.387c1.179,3.348,4.323,5.442,7.682,5.442 c0.898,0,1.81-0.15,2.705-0.465L298.715,288.669z"/> <path style="fill:#FFFFFF;" d="M308.619,364.137l-7.171-1.333c4.486-3.938,8.383-8.566,11.516-13.764 c7.31-12.131,9.97-26.483,7.486-40.414c-0.789-4.428-5.018-7.379-9.448-6.588c-4.428,0.789-7.378,5.019-6.588,9.448 c1.791,10.045-0.127,20.396-5.401,29.146c-2.478,4.111-5.621,7.725-9.257,10.732l2.418-11.702c0.911-4.404-1.922-8.713-6.327-9.623 c-4.407-0.912-8.713,1.922-9.625,6.327l-5.944,28.764c-0.003,0.015-0.004,0.031-0.008,0.047c-0.904,4.368,2.132,8.795,6.495,9.609 l28.877,5.367c0.503,0.093,1.003,0.139,1.497,0.139c3.847,0,7.269-2.739,7.998-6.658 C315.96,369.21,313.041,364.959,308.619,364.137z"/> <path style="fill:#FFFFFF;" d="M247.794,358.233c-9.527-3.651-17.402-10.637-22.174-19.67c-2.242-4.245-3.715-8.801-4.412-13.469 l8.774,8.112c3.302,3.053,8.456,2.852,11.51-0.452c3.054-3.303,2.852-8.456-0.452-11.51l-21.566-19.939 c-0.012-0.011-0.024-0.021-0.037-0.03c-2.809-2.442-7.03-2.798-10.115-0.68c-0.54,0.37-1.038,0.8-1.473,1.29l-19.498,21.955 c-2.986,3.363-2.681,8.51,0.682,11.498c1.551,1.378,3.481,2.055,5.405,2.055c2.247,0,4.484-0.925,6.093-2.737l4.843-5.455 c1.057,5.876,3.009,11.603,5.843,16.969c6.617,12.524,17.535,22.209,30.749,27.273c0.959,0.367,1.944,0.541,2.912,0.541 c3.276,0,6.365-1.99,7.607-5.232C254.094,364.553,251.994,359.842,247.794,358.233z"/> </g> <polygon style="opacity:0.2;enable-background:new ;" points="146.855,221.425 149.748,248.573 362.252,248.573 365.145,221.425 256,199.132 "/> <path style="fill:#76CC5B;" d="M365.145,176.838H146.855c-12.312,0-22.294,9.981-22.294,22.294l0,0 c0,12.312,9.981,22.294,22.294,22.294h218.288c12.312,0,22.294-9.981,22.294-22.294l0,0 C387.439,186.819,377.457,176.838,365.145,176.838z"/> <polygon style="opacity:0.2;enable-background:new ;" points="295.708,142.672 298.601,169.82 489.065,169.82 491.957,142.672 393.832,122.63 "/> <path style="fill:#FF8466;" d="M295.709,102.587h196.249c11.07,0,20.043,8.973,20.043,20.043l0,0 c0,11.069-8.973,20.043-20.043,20.043H295.709c-11.07,0-20.043-8.973-20.043-20.043l0,0 C275.666,111.561,284.639,102.587,295.709,102.587z"/> <polygon style="opacity:0.2;enable-background:new ;" points="22.936,169.82 213.399,169.82 216.292,142.672 118.168,122.63 20.043,142.672 "/> <path style="fill:#6693E6;" d="M216.292,102.587H20.043C8.973,102.587,0,111.561,0,122.63l0,0c0,11.069,8.973,20.043,20.043,20.043 h196.249c11.069,0,20.043-8.973,20.043-20.043l0,0C236.335,111.561,227.361,102.587,216.292,102.587z"/> </g>
</svg>