<?xml version="1.0" encoding="UTF-8"?>
<svg id="Layer_1" data-name="Layer 1" xmlns="http://www.w3.org/2000/svg" viewBox="0 0 49.81 49.26">
  <defs>
    <style>
      .cls-1 {
        fill: #ff2257;
      }
    </style>
  </defs>
  <polygon class="cls-1" points="14.1 12.44 13.15 11.48 0 24.63 13.15 37.78 14.1 36.83 2.59 25.31 38.87 25.31 38.87 23.95 2.59 23.95 14.1 12.44"/>
  <path class="cls-1" d="M43.98,0H23.06c-3.2,0-5.79,2.59-5.79,5.79v15.33h1.36V5.79c0-2.45,1.98-4.43,4.43-4.43h20.95c2.45,0,4.43,1.98,4.43,4.43V43.47c0,2.45-1.98,4.43-4.43,4.43H23.06c-2.45,0-4.43-1.98-4.43-4.43v-15.33h-1.36v15.33c0,3.2,2.59,5.79,5.79,5.79h20.95c3.2,0,5.79-2.59,5.79-5.79V5.79c-.03-3.2-2.62-5.79-5.83-5.79Z"/>
</svg>