<!DOCTYPE svg PUBLIC "-//W3C//DTD SVG 1.1//EN" "http://www.w3.org/Graphics/SVG/1.1/DTD/svg11.dtd">
<!-- Uploaded to: SVG Repo, www.svgrepo.com, Transformed by: SVG Repo Mixer Tools -->
<svg width="800px" height="800px" viewBox="0 0 1024 1024" xmlns="http://www.w3.org/2000/svg" fill="#ffffff" stroke="#ffffff">
<g id="SVGRepo_bgCarrier" stroke-width="0"/>
<g id="SVGRepo_tracerCarrier" stroke-linecap="round" stroke-linejoin="round"/>
<g id="SVGRepo_iconCarrier">
<path fill="#ffffff" d="M512 896a384 384 0 1 0 0-768 384 384 0 0 0 0 768zm0 64a448 448 0 1 1 0-896 448 448 0 0 1 0 896z"/>
<path fill="#ffffff" d="M480 256a32 32 0 0 1 32 32v256a32 32 0 0 1-64 0V288a32 32 0 0 1 32-32z"/>
<path fill="#ffffff" d="M480 512h256q32 0 32 32t-32 32H480q-32 0-32-32t32-32z"/>
</g>
</svg>