<?xml version="1.0" encoding="UTF-8"?>
<svg id="Layer_1" data-name="Layer 1" xmlns="http://www.w3.org/2000/svg" viewBox="0 0 32.16 32.16">
  <defs>
    <style>
      .cls-1 {
        fill: #ff2257;
      }
    </style>
  </defs>
  <path class="cls-1" d="M20.32,0H11.84C5.31,0,0,5.31,0,11.84v8.48c0,6.53,5.31,11.84,11.84,11.84h8.48c6.53,0,11.84-5.31,11.84-11.84V11.84c0-6.53-5.31-11.84-11.84-11.84Zm10.84,20.32c0,5.98-4.86,10.84-10.84,10.84H11.84c-5.98,0-10.84-4.86-10.84-10.84V11.84C1,5.86,5.86,1,11.84,1h8.48c5.98,0,10.84,4.86,10.84,10.84v8.48Z"/>
  <path class="cls-1" d="M24.67,6.95H7.48c-.28,0-.5,.22-.5,.5s.22,.5,.5,.5H24.67c.28,0,.5-.22,.5-.5s-.22-.5-.5-.5Z"/>
  <path class="cls-1" d="M24.67,9.77H7.48c-.15,0-.3,.07-.39,.19-.09,.12-.13,.28-.1,.42l3.37,14.44c.05,.23,.25,.39,.49,.39h10.44c.23,0,.43-.16,.49-.39l3.37-14.44c.03-.15,0-.31-.1-.42-.09-.12-.24-.19-.39-.19Zm-3.77,14.44H11.25l-3.14-13.44h15.93l-3.14,13.44Z"/>
  <path class="cls-1" d="M16.08,22.98c.28,0,.5-.22,.5-.5V12.5c0-.28-.22-.5-.5-.5s-.5,.22-.5,.5v9.98c0,.28,.22,.5,.5,.5Z"/>
  <path class="cls-1" d="M13.37,22.98s.05,0,.07,0c.27-.04,.46-.29,.42-.57l-1.42-9.98c-.04-.27-.29-.46-.57-.42-.27,.04-.46,.29-.42,.57l1.42,9.98c.04,.25,.25,.43,.49,.43Z"/>
  <path class="cls-1" d="M18.72,22.98s.05,0,.07,0c.25,0,.46-.18,.49-.43l1.42-9.98c.04-.27-.15-.53-.42-.57-.27-.03-.53,.15-.57,.42l-1.42,9.98c-.04,.27,.15,.53,.42,.57Z"/>
</svg>