<?xml version="1.0" encoding="UTF-8"?>
<svg id="Layer_1" data-name="Layer 1" xmlns="http://www.w3.org/2000/svg" viewBox="0 0 31.16 31.16">
  <defs>
    <style>
      .cls-1 {
        fill: #00d384;
      }
    </style>
  </defs>
  <path class="cls-1" d="M19.82,0H11.34C5.1,0,0,5.1,0,11.34v8.48c0,6.24,5.1,11.34,11.34,11.34h8.48c6.24,0,11.34-5.1,11.34-11.34V11.34C31.16,5.1,26.05,0,19.82,0Zm10.34,19.82c0,5.7-4.64,10.34-10.34,10.34H11.34c-5.7,0-10.34-4.64-10.34-10.34V11.34C1,5.64,5.64,1,11.34,1h8.48c5.7,0,10.34,4.64,10.34,10.34v8.48Z"/>
  <path class="cls-1" d="M22.11,16.25l-6.03,6.03V7.66c0-.28-.22-.5-.5-.5s-.5,.22-.5,.5v14.62l-6.03-6.03c-.2-.2-.51-.2-.71,0s-.2,.51,0,.71l6.89,6.89s.1,.08,.16,.11c.06,.03,.13,.04,.19,.04s.13-.01,.19-.04c.06-.03,.12-.06,.16-.11l6.89-6.89c.2-.2,.2-.51,0-.71s-.51-.2-.71,0Z"/>
</svg>