<?xml version="1.0" encoding="UTF-8"?>
<svg id="Layer_1" data-name="Layer 1" xmlns="http://www.w3.org/2000/svg" viewBox="0 0 31.16 31.16">
  <defs>
    <style>
      .cls-1 {
        fill: #fff;
      }

      .cls-2 {
        fill: #ffc400;
      }
    </style>
  </defs>
  <rect class="cls-2" x="0" width="31.16" height="31.16" rx="11.34" ry="11.34"/>
  <g>
    <path class="cls-1" d="M15.58,7.13c-4.66,0-8.45,3.79-8.45,8.45s3.79,8.45,8.45,8.45,8.45-3.79,8.45-8.45-3.79-8.45-8.45-8.45Zm0,15.89c-4.11,0-7.45-3.34-7.45-7.45s3.34-7.45,7.45-7.45,7.45,3.34,7.45,7.45-3.34,7.45-7.45,7.45Z"/>
    <path class="cls-1" d="M16.08,15.32v-5.02c0-.28-.22-.5-.5-.5s-.5,.22-.5,.5v5.28s0,.02,0,.04c0,.03,.01,.07,.02,.1,0,.03,.02,.06,.03,.09,.01,.03,.03,.05,.05,.08,.02,.03,.04,.05,.07,.07,.01,0,.02,.02,.03,.03l3.61,2.63c.09,.06,.19,.1,.29,.1,.15,0,.31-.07,.4-.21,.16-.22,.11-.54-.11-.7l-3.4-2.48Z"/>
  </g>
</svg>