<?xml version="1.0" encoding="UTF-8"?>
<svg id="Layer_1" data-name="Layer 1" xmlns="http://www.w3.org/2000/svg" viewBox="0 0 31.16 31.16">
  <defs>
    <style>
      .cls-1 {
        fill: #fff;
      }

      .cls-2 {
        fill: #ff2257;
      }
    </style>
  </defs>
  <rect class="cls-2" width="31.16" height="31.16" rx="11.34" ry="11.34"/>
  <path class="cls-1" d="M16.25,15.58l6.81-7.58c.18-.21,.17-.52-.04-.71-.2-.18-.52-.17-.71,.04l-6.73,7.5-6.73-7.5c-.19-.21-.5-.22-.71-.04-.21,.18-.22,.5-.04,.71l6.81,7.58-6.81,7.58c-.18,.21-.17,.52,.04,.71,.1,.09,.21,.13,.33,.13,.14,0,.27-.06,.37-.17l6.73-7.5,6.73,7.5c.18,.21,.5,.22,.71,.04,.21-.18,.22-.5,.04-.71l-6.81-7.58Z"/>
</svg>