<?xml version="1.0" encoding="UTF-8"?>
<svg id="Layer_1" data-name="Layer 1" xmlns="http://www.w3.org/2000/svg" viewBox="0 0 31.16 31.16">
  <defs>
    <style>
      .cls-1 {
        fill: #00d384;
      }
    </style>
  </defs>
  <path class="cls-1" d="M19.82,0H11.34C5.1,0,0,5.1,0,11.34v8.48c0,6.24,5.1,11.34,11.34,11.34h8.48c6.24,0,11.34-5.1,11.34-11.34V11.34C31.16,5.1,26.05,0,19.82,0Zm10.34,19.82c0,5.7-4.64,10.34-10.34,10.34H11.34c-5.7,0-10.34-4.64-10.34-10.34V11.34C1,5.64,5.64,1,11.34,1h8.48c5.7,0,10.34,4.64,10.34,10.34v8.48Z"/>
  <path class="cls-1" d="M24.05,6.47L6.76,12.81c-.2,.08-.34,.27-.33,.49s.16,.4,.37,.46l8.34,2.25,2.24,8.34c.06,.21,.24,.36,.46,.37,0,0,.02,0,.02,0,.21,0,.4-.13,.47-.33L24.69,7.11c.07-.18,.02-.39-.12-.53-.14-.14-.34-.18-.53-.12Zm-15.46,6.74l13.68-5.02-6.85,6.85-6.82-1.83Zm9.36,9.36l-1.83-6.82,6.85-6.85-5.02,13.68Z"/>
</svg>