<?xml version="1.0" encoding="UTF-8"?>
<svg id="Layer_1" data-name="Layer 1" xmlns="http://www.w3.org/2000/svg" viewBox="0 0 32.16 32.16">
  <defs>
    <style>
      .cls-1 {
        fill: #9b7ef4;
      }
    </style>
  </defs>
  <path class="cls-1" d="M20.32,0H11.84C5.31,0,0,5.31,0,11.84v8.48c0,6.53,5.31,11.84,11.84,11.84h8.48c6.53,0,11.84-5.31,11.84-11.84V11.84c0-6.53-5.31-11.84-11.84-11.84Zm10.84,20.32c0,5.98-4.86,10.84-10.84,10.84H11.84c-5.98,0-10.84-4.86-10.84-10.84V11.84C1,5.86,5.86,1,11.84,1h8.48c5.98,0,10.84,4.86,10.84,10.84v8.48Z"/>
  <path class="cls-1" d="M16.43,6.48c-.09-.09-.22-.15-.35-.15s-.26,.06-.35,.15l-7.72,7.72c-.2,.2-.2,.51,0,.71s.51,.2,.71,0l6.86-6.86V25.32c0,.28,.22,.5,.5,.5s.5-.22,.5-.5V8.04l6.86,6.86c.1,.1,.23,.15,.35,.15s.26-.05,.35-.15c.2-.2,.2-.51,0-.71l-7.72-7.72Z"/>
</svg>